# Blender 4.3.2
# www.blender.org
mtllib grass_block.mtl
o Cube
v -0.389000 -0.389000 0.389000
v -0.389000 0.389000 0.389000
v -0.389000 -0.389000 -0.389000
v -0.389000 0.389000 -0.389000
v 0.389000 -0.389000 0.389000
v 0.389000 0.389000 0.389000
v 0.389000 -0.389000 -0.389000
v 0.389000 0.389000 -0.389000
vn -1.0000 -0.0000 -0.0000
vn -0.0000 -0.0000 -1.0000
vn 1.0000 -0.0000 -0.0000
vn -0.0000 -0.0000 1.0000
vn -0.0000 1.0000 -0.0000
vn -0.0000 -1.0000 -0.0000
vt 0.000000 1.000000
vt 1.000000 0.000000
vt 0.000000 0.000000
vt 1.000000 1.000000
s 1
usemtl Grass_Side
f 2/1/1 3/2/1 1/3/1
f 4/1/2 7/2/2 3/3/2
f 8/4/3 5/3/3 7/2/3
f 6/4/4 1/3/4 5/2/4
f 2/1/1 4/4/1 3/2/1
f 4/1/2 8/4/2 7/2/2
f 8/4/3 6/1/3 5/3/3
f 6/4/4 2/1/4 1/3/4
usemtl Grass_Top
f 4/1/5 6/2/5 8/4/5
f 4/1/5 2/3/5 6/2/5
usemtl Grass_Bottom
f 7/4/6 1/3/6 3/1/6
f 7/4/6 5/2/6 1/3/6
